<?xml version="1.0" encoding="UTF-8"?>
<svg xmlns="http://www.w3.org/2000/svg" xmlns:xlink="http://www.w3.org/1999/xlink" width="503.84pt" height="503.84pt" viewBox="0 0 503.84 503.84" version="1.1">
<defs>
<clipPath id="clip1">
  <path d="M 0 0 L 503.839844 0 L 503.839844 503.839844 L 0 503.839844 Z M 0 0 "/>
</clipPath>
</defs>
<g id="surface1">
<g clip-path="url(#clip1)" clip-rule="nonzero">
<path style=" stroke:none;fill-rule:nonzero;fill:rgb(0.799561%,0.799561%,0.799561%);fill-opacity:1;" d="M 251.921875 0 C 183.503906 0 174.925781 0.289063 148.054688 1.515625 C 121.238281 2.738281 102.925781 6.996094 86.902344 13.222656 C 70.335938 19.660156 56.289063 28.277344 42.28125 42.28125 C 28.277344 56.285156 19.664063 70.335938 13.226563 86.902344 C 7 102.925781 2.738281 121.238281 1.515625 148.054688 C 0.289063 174.921875 0 183.503906 0 251.921875 C 0 320.335938 0.289063 328.914063 1.515625 355.785156 C 2.738281 382.601563 7 400.914063 13.226563 416.9375 C 19.664063 433.503906 28.277344 447.550781 42.28125 461.558594 C 56.289063 475.5625 70.335938 484.175781 86.902344 490.613281 C 102.925781 496.84375 121.238281 501.101563 148.054688 502.324219 C 174.925781 503.550781 183.503906 503.839844 251.921875 503.839844 C 320.339844 503.839844 328.917969 503.550781 355.785156 502.324219 C 382.601563 501.101563 400.914063 496.84375 416.9375 490.613281 C 433.503906 484.175781 447.554688 475.5625 461.558594 461.558594 C 475.5625 447.550781 484.179688 433.503906 490.617188 416.9375 C 496.84375 400.914063 501.101563 382.601563 502.324219 355.785156 C 503.550781 328.914063 503.839844 320.335938 503.839844 251.921875 C 503.839844 183.503906 503.550781 174.921875 502.324219 148.054688 C 501.101563 121.238281 496.84375 102.925781 490.617188 86.902344 C 484.179688 70.335938 475.5625 56.285156 461.558594 42.28125 C 447.554688 28.277344 433.503906 19.660156 416.9375 13.222656 C 400.914063 6.996094 382.601563 2.738281 355.785156 1.515625 C 328.917969 0.289063 320.339844 0 251.921875 0 Z M 251.921875 45.390625 C 319.1875 45.390625 327.152344 45.648438 353.71875 46.859375 C 378.28125 47.980469 391.617188 52.082031 400.496094 55.53125 C 412.253906 60.101563 420.648438 65.5625 429.460938 74.378906 C 438.277344 83.191406 443.738281 91.585938 448.308594 103.34375 C 451.757813 112.222656 455.859375 125.558594 456.980469 150.121094 C 458.191406 176.6875 458.449219 184.652344 458.449219 251.921875 C 458.449219 319.183594 458.191406 327.152344 456.980469 353.71875 C 455.859375 378.277344 451.757813 391.617188 448.308594 400.496094 C 443.738281 412.253906 438.277344 420.644531 429.460938 429.460938 C 420.648438 438.277344 412.253906 443.734375 400.496094 448.304688 C 391.617188 451.757813 378.28125 455.859375 353.71875 456.980469 C 327.15625 458.191406 319.191406 458.449219 251.921875 458.449219 C 184.648438 458.449219 176.683594 458.191406 150.121094 456.980469 C 125.5625 455.859375 112.222656 451.757813 103.34375 448.304688 C 91.585938 443.734375 83.195313 438.277344 74.378906 429.460938 C 65.5625 420.644531 60.105469 412.253906 55.535156 400.496094 C 52.085938 391.617188 47.980469 378.277344 46.859375 353.71875 C 45.648438 327.152344 45.390625 319.183594 45.390625 251.921875 C 45.390625 184.652344 45.648438 176.6875 46.859375 150.121094 C 47.980469 125.558594 52.085938 112.222656 55.535156 103.34375 C 60.105469 91.585938 65.5625 83.191406 74.378906 74.378906 C 83.195313 65.5625 91.585938 60.101563 103.34375 55.53125 C 112.222656 52.082031 125.5625 47.980469 150.121094 46.859375 C 176.6875 45.648438 184.65625 45.390625 251.921875 45.390625 "/>
</g>
<path style=" stroke:none;fill-rule:nonzero;fill:rgb(0.799561%,0.799561%,0.799561%);fill-opacity:1;" d="M 251.921875 335.894531 C 205.542969 335.894531 167.945313 298.296875 167.945313 251.921875 C 167.945313 205.542969 205.542969 167.945313 251.921875 167.945313 C 298.296875 167.945313 335.894531 205.542969 335.894531 251.921875 C 335.894531 298.296875 298.296875 335.894531 251.921875 335.894531 Z M 251.921875 122.554688 C 180.472656 122.554688 122.554688 180.472656 122.554688 251.921875 C 122.554688 323.367188 180.472656 381.285156 251.921875 381.285156 C 323.367188 381.285156 381.285156 323.367188 381.285156 251.921875 C 381.285156 180.472656 323.367188 122.554688 251.921875 122.554688 "/>
<path style=" stroke:none;fill-rule:nonzero;fill:rgb(0.799561%,0.799561%,0.799561%);fill-opacity:1;" d="M 416.628906 117.445313 C 416.628906 134.140625 403.09375 147.675781 386.394531 147.675781 C 369.699219 147.675781 356.164063 134.140625 356.164063 117.445313 C 356.164063 100.746094 369.699219 87.214844 386.394531 87.214844 C 403.09375 87.214844 416.628906 100.746094 416.628906 117.445313 "/>
</g>
</svg>
